{"accessors":[{"bufferView":2,"byteOffset":0,"componentType":5126,"count":6442,"max":[1,1,1,1],"min":[0.006584956776350737,0.006584956776350737,0.006584956776350737,1],"name":"accessor_color_m0-PolyPaper23_-196246","type":"VEC4"},{"bufferView":2,"byteOffset":103072,"componentType":5126,"count":408,"max":[1,1,1,1],"min":[1,1,1,1],"name":"accessor_color_m1-PolyGem25_-88374","type":"VEC4"},{"bufferView":2,"byteOffset":109600,"componentType":5126,"count":1908,"max":[0.6800203323364258,0.6800203323364258,0.6800203323364258,0.2509804],"min":[0.6800203323364258,0.6800203323364258,0.6800203323364258,0.2509804],"name":"accessor_color_m2-PolyGlass24_-196240","type":"VEC4"},{"bufferView":0,"byteOffset":0,"componentType":5123,"count":9402,"max":[6441],"min":[0],"name":"accessor_indices_0_m0-PolyPaper23_-196246","type":"SCALAR"},{"bufferView":0,"byteOffset":18804,"componentType":5123,"count":576,"max":[407],"min":[0],"name":"accessor_indices_0_m1-PolyGem25_-88374","type":"SCALAR"},{"bufferView":0,"byteOffset":19956,"componentType":5123,"count":2832,"max":[1907],"min":[0],"name":"accessor_indices_0_m2-PolyGlass24_-196240","type":"SCALAR"},{"bufferView":1,"byteOffset":77304,"componentType":5126,"count":6442,"max":[0.9985521,0.9988927,0.9995955],"min":[-0.9983718,-0.9999903,-0.9999347],"name":"accessor_normal_m0-PolyPaper23_-196246","type":"VEC3"},{"bufferView":1,"byteOffset":159504,"componentType":5126,"count":408,"max":[0.9916022,0.9839833,0.9672198],"min":[-0.9916022,-0.9839832,-0.9672195],"name":"accessor_normal_m1-PolyGem25_-88374","type":"VEC3"},{"bufferView":1,"byteOffset":187296,"componentType":5126,"count":1908,"max":[0.9448196,0.8842714,0.8584284],"min":[-0.7470211,-0.8204068,-0.9985738],"name":"accessor_normal_m2-PolyGlass24_-196240","type":"VEC3"},{"bufferView":1,"byteOffset":0,"componentType":5126,"count":6442,"max":[0.3216406,2.298982,1.262264],"min":[-0.5164106,0.1448347,0.5937178],"name":"accessor_position_m0-PolyPaper23_-196246","type":"VEC3"},{"bufferView":1,"byteOffset":154608,"componentType":5126,"count":408,"max":[0.2890109,1.587493,1.205017],"min":[0.1704378,1.468864,1.085049],"name":"accessor_position_m1-PolyGem25_-88374","type":"VEC3"},{"bufferView":1,"byteOffset":164400,"componentType":5126,"count":1908,"max":[-0.4715393,2.483597,0.6621508],"min":[-0.8531761,1.912175,0.5790989],"name":"accessor_position_m2-PolyGlass24_-196240","type":"VEC3"}],"asset":{"copyright":"Unknown","extras":{"GOOGLE_processor_version":294144208},"generator":"glTF 1-to-2 Upgrader for Google Blocks","version":"2.0"},"bufferViews":[{"buffer":0,"byteLength":25620,"byteOffset":0,"name":"ushortBufferView","target":34963},{"buffer":0,"byteLength":210192,"byteOffset":25620,"byteStride":12,"name":"vec3BufferView","target":34962},{"buffer":0,"byteLength":140128,"byteOffset":235812,"byteStride":16,"name":"vec4BufferView","target":34962}],"buffers":[{"byteLength":375940,"name":"model","uri":"data:application/octet-stream;base64,"}],"cameras":[{"perspective":{"yfov":0.7853981633974483,"znear":0.1000000014901161},"type":"perspective"}],"extensions":{"KHR_lights_punctual":{"lights":[{"color":[1,0.9333333333333333,0.8666666666666667],"intensity":0.25,"name":"headLight","type":"directional"},{"color":[1,0.9333333333333333,0.8666666666666667],"intensity":0.324999988079071,"name":"keyLight","type":"directional"}]}},"extensionsUsed":["GOOGLE_backgrounds","GOOGLE_camera_settings","KHR_lights_punctual"],"extras":{"GOOGLE_initial_camera_motion":{"motionPath":"FULL_ROTATION"},"GOOGLE_lighting_rig":{"disableShadows":false}},"materials":[{"alphaMode":"OPAQUE","doubleSided":false,"name":"BlocksPaper","pbrMetallicRoughness":{"baseColorFactor":[1,1,1,1],"metallicFactor":0,"roughnessFactor":0.6}},{"alphaMode":"BLEND","doubleSided":false,"name":"BlocksGlass","pbrMetallicRoughness":{"baseColorFactor":[0.2,0.2,1,0.3],"metallicFactor":1,"roughnessFactor":0.4}},{"alphaMode":"OPAQUE","doubleSided":true,"name":"BlocksGem","pbrMetallicRoughness":{"baseColorFactor":[1,0.4,1,1],"metallicFactor":0,"roughnessFactor":0.1}}],"meshes":[{"name":"mesh_m0-PolyPaper23_-196246","primitives":[{"attributes":{"COLOR_0":0,"NORMAL":6,"POSITION":9},"indices":3,"material":0,"mode":4}]},{"name":"mesh_m1-PolyGem25_-88374","primitives":[{"attributes":{"COLOR_0":1,"NORMAL":7,"POSITION":10},"indices":4,"material":2,"mode":4}]},{"name":"mesh_m2-PolyGlass24_-196240","primitives":[{"attributes":{"COLOR_0":2,"NORMAL":8,"POSITION":11},"indices":5,"material":1,"mode":4}]}],"nodes":[{"mesh":0,"name":"node_MeshObject-502384576-PolyPaper23"},{"mesh":1,"name":"node_MeshObject-502728128-PolyGem25"},{"mesh":2,"name":"node_MeshObject1489395968-PolyGlass24"},{"children":[4]},{"children":[5],"extras":{"isTransformNode":1},"translation":[-0.2531775295649479,1.27294260550114,0.9868361730741342]},{"children":[0,1,2],"translation":[0.2531775295649479,-1.27294260550114,-0.9868361730741342]},{"camera":0,"children":[7],"rotation":[0.03902892885452343,0.9008905660656499,-0.0828736677105975,0.4242698267454038],"translation":[0.9473055005073547,1.518248081207275,0.01011458039283752]},{"extensions":{"KHR_lights_punctual":{"light":0}},"extras":{"isHeadLight":1},"name":"headLightNode","translation":[-1.833085277257757,0.9165426386288784,0.9165426386288784]},{"extensions":{"KHR_lights_punctual":{"light":1}},"extras":{"isKeyLight":1},"name":"keyLightNode","rotation":[-0.7505326882858236,-0.3752663441429118,0,0.5439447166468927],"scale":[0,0,1.851416130030334],"translation":[-1.948482516317963,5.47185042367895,-0.8888889082950576]}],"scene":0,"scenes":[{"extensions":{"GOOGLE_backgrounds":{"color":[0.803921568627451,0.8627450980392157,0.2235294117647059]},"GOOGLE_camera_settings":{}},"extras":{"GOOGLE_camera_index":{"cameraIndex":0,"nodeIndex":6},"GOOGLE_geometry_data":{"stats":{"centroid":[-0.09706638628762827,1.769018163618281,0.9625272217352768],"radius":1.833085277257757,"stdev":0.5453272410697932},"visualCenterPoint":[-0.2531775295649479,1.27294260550114,0.9868361730741342]},"GOOGLE_hemi_light":{"groundColor":[0.803921568627451,0.8627450980392157,0.2235294117647059]}},"name":"defaultScene","nodes":[3,6,8]}]}